<?xml version="1.0" encoding="UTF-8"?>
<svg id="Layer_2" data-name="Layer 2" xmlns="http://www.w3.org/2000/svg" viewBox="0 0 100.06 102">
  <defs>
    <style>
      .cls-1 {
        fill: #fff;
      }
    </style>
  </defs>
  <g id="Layer_1-2" data-name="Layer 1">
    <g id="Layer_1-2" data-name="Layer 1-2">
      <path class="cls-1" d="M90.2,10.94c-1.85-1.36-3.77-2.57-5.73-3.67-2.38-1.34-4.83-2.5-7.35-3.46C56.84-4.03,32.97.23,16.6,16.59c-21.88,21.88-22.13,57.17-.78,79.38.26.27.51.56.78.82,1.91,1.91,3.92,3.64,6.01,5.22l14.54-14.54c-2.14-1.5-4.2-3.2-6.11-5.11l.05-.05c-.28-.25-.54-.52-.82-.78-16.92-17.77-16.66-45.89.78-63.33,3.91-3.91,8.37-6.96,13.12-9.15,8.88-4.08,18.8-5.14,28.23-3.18,7.03,1.46,13.78,4.6,19.62,9.42.63.52.52,1.51-.21,1.89,0,0-.02,0-.02.01-.4.21-.88.15-1.23-.14-8.82-7.15-20.02-9.9-30.67-8.24-7.9,1.24-15.5,4.89-21.6,10.98-15.02,15.02-15.27,39.17-.78,54.52.26.27.51.56.78.83,1.93,1.93,4,3.61,6.18,5.05l14.27-14.27c-2.21-1.67-4.06-3.27-6.01-5.22-.27-.27-.52-.54-.78-.83-10.06-10.9-9.8-27.89.78-38.47,9.84-9.84,25.21-10.75,36.08-2.75.45.33.59.94.34,1.43,0,.02-.02.03-.02.05-.31.61-1.09.81-1.66.42-8.43-5.87-20.1-5.03-27.59,2.52-8.38,8.46-8.16,22.17.26,30.59,1.88,1.88,3.15,3.13,5.74,5.1l14.11-14.11-5.61-5.61c-3.98-3.98-3.98-10.45,0-14.44,3.98-3.99,10.45-3.98,14.44,0l1.6,1.6c1.01,1.01,2.3,1.53,3.62,1.62.87.06,1.75-.06,2.56-.4.67-.27,1.29-.68,1.84-1.22.08-.08.14-.18.22-.26.6-.68,1.02-1.46,1.24-2.3.22-.84.27-1.71.1-2.55-.05-.24-.34-1.1-.39-1.19-.15-.33-.32-.65-.53-.94-.19-.27-.39-.53-.62-.77,0,0-2.14-2.12-2.42-2.38,0,0-3.79-3.38-5.8-4.85Z"/>
      <path d="M90.2,10.94c-1.85-1.36-3.77-2.57-5.73-3.67-2.38-1.34-4.83-2.5-7.35-3.46C56.84-4.03,32.97.23,16.6,16.59c-21.88,21.88-22.13,57.17-.78,79.38.26.27.51.56.78.82,1.91,1.91,3.92,3.64,6.01,5.22l14.54-14.54c-2.14-1.5-4.2-3.2-6.11-5.11l.05-.05c-.28-.25-.54-.52-.82-.78-16.92-17.77-16.66-45.89.78-63.33,3.91-3.91,8.37-6.96,13.12-9.15,8.88-4.08,18.8-5.14,28.23-3.18,7.03,1.46,13.78,4.6,19.62,9.42.63.52.52,1.51-.21,1.89,0,0-.02,0-.02.01-.4.21-.88.15-1.23-.14-8.82-7.15-20.02-9.9-30.67-8.24-7.9,1.24-15.5,4.89-21.6,10.98-15.02,15.02-15.27,39.17-.78,54.52.26.27.51.56.78.83,1.93,1.93,4,3.61,6.18,5.05l14.27-14.27c-2.21-1.67-4.06-3.27-6.01-5.22-.27-.27-.52-.54-.78-.83-10.06-10.9-9.8-27.89.78-38.47,9.84-9.84,25.21-10.75,36.08-2.75.45.33.59.94.34,1.43,0,.02-.02.03-.02.05-.31.61-1.09.81-1.66.42-8.43-5.87-20.1-5.03-27.59,2.52-8.38,8.46-8.16,22.17.26,30.59,1.88,1.88,3.15,3.13,5.74,5.1l14.11-14.11-5.61-5.61c-3.98-3.98-3.98-10.45,0-14.44,3.98-3.99,10.45-3.98,14.44,0l1.6,1.6c1.01,1.01,2.3,1.53,3.62,1.62.87.06,1.75-.06,2.56-.4.67-.27,1.29-.68,1.84-1.22.08-.08.14-.18.22-.26.6-.68,1.02-1.46,1.24-2.3.22-.84.27-1.71.1-2.55-.05-.24-.34-1.1-.39-1.19-.15-.33-.32-.65-.53-.94-.19-.27-.39-.53-.62-.77,0,0-2.14-2.12-2.42-2.38,0,0-3.79-3.38-5.8-4.85Z"/>
    </g>
  </g>
</svg>